<svg width="20" height="13" viewBox="0 0 20 13" fill="none" xmlns="http://www.w3.org/2000/svg">
<path id="Vector" d="M1.47268 0.914062C1.22658 0.976562 1.03518 1.09766 0.847675 1.30469C0.625019 1.55078 0.531269 1.81641 0.535175 2.17578C0.542988 2.72266 0.253925 2.40234 5.39064 7.53516L10 12.1445L14.6094 7.53516C19.7461 2.40234 19.4571 2.72266 19.4649 2.17578C19.4688 1.80859 19.375 1.54687 19.1367 1.28906C18.8828 1.01172 18.6328 0.902343 18.2422 0.898437C17.668 0.890624 17.9961 0.601562 13.7774 4.81641L10 8.58984L6.2383 4.83203C3.18361 1.77734 2.44533 1.05859 2.29689 0.992187C2.08205 0.898437 1.68752 0.86328 1.47268 0.914062Z" fill="#FBFBFB"/>
</svg>
