<svg width="230" height="377" viewBox="0 0 230 377" fill="none" xmlns="http://www.w3.org/2000/svg">
<path d="M137.381 1.26059C138.982 1.02902 140.615 0.909546 142.273 0.909546H146.657V0H142.273C140.579 0 138.911 0.122042 137.275 0.35868L137.381 1.26059Z" fill="url(#paint0_linear_617_10756)"/>
<path d="M155.426 0.909546H164.194V0H155.426V0.909546Z" fill="url(#paint1_linear_617_10756)"/>
<path d="M172.963 0.909546H181.732V0H172.963V0.909546Z" fill="url(#paint2_linear_617_10756)"/>
<path d="M190.5 0.909546H199.269V0H190.5V0.909546Z" fill="url(#paint3_linear_617_10756)"/>
<path d="M208.037 0.909546H216.806V0H208.037V0.909546Z" fill="url(#paint4_linear_617_10756)"/>
<path d="M225.574 0.909546H229.959V0H225.574V0.909546Z" fill="url(#paint5_linear_617_10756)"/>
<path d="M119.474 9.48926C122.051 7.29313 124.893 5.46057 127.937 4.06062L127.623 3.22045C124.512 4.65127 121.607 6.52406 118.974 8.76807L119.474 9.48926Z" fill="url(#paint6_linear_617_10756)"/>
<path d="M107.664 26.5419C108.926 23.1659 110.579 20.0145 112.559 17.1566L111.909 16.6024C109.885 19.5225 108.196 22.7431 106.906 26.1935L107.664 26.5419Z" fill="url(#paint7_linear_617_10756)"/>
<path d="M104.822 42.4386C104.822 40.5998 104.93 38.7892 105.139 37.0139L104.325 36.8963C104.112 38.7104 104.002 40.5604 104.002 42.4386V48.2697H104.822V42.4386Z" fill="url(#paint8_linear_617_10756)"/>
<path d="M104.822 71.594V59.9318H104.002V71.594H104.822Z" fill="url(#paint9_linear_617_10756)"/>
<path d="M104.822 94.9183V83.2561H104.002V94.9183H104.822Z" fill="url(#paint10_linear_617_10756)"/>
<path d="M104.822 112.412V106.58H104.002V112.412C104.002 114.25 103.894 116.061 103.685 117.836L104.499 117.954C104.712 116.14 104.822 114.29 104.822 112.412Z" fill="url(#paint11_linear_617_10756)"/>
<path d="M96.9153 138.248C98.9389 135.328 100.628 132.107 101.918 128.657L101.16 128.308C99.898 131.684 98.2454 134.836 96.2649 137.693L96.9153 138.248Z" fill="url(#paint12_linear_617_10756)"/>
<path d="M81.2012 151.63C84.3127 150.199 87.217 148.326 89.8503 146.082L89.3506 145.361C86.7734 147.557 83.9314 149.39 80.887 150.789L81.2012 151.63Z" fill="url(#paint13_linear_617_10756)"/>
<path d="M66.5515 154.85C68.2452 154.85 69.9135 154.728 71.5495 154.491L71.4434 153.59C69.8425 153.821 68.2097 153.941 66.5515 153.941H62.1147V154.85H66.5515Z" fill="url(#paint14_linear_617_10756)"/>
<path d="M8.87354 154.85H17.7471V153.941H8.87354V154.85Z" fill="url(#paint15_linear_617_10756)"/>
<path d="M26.6206 154.85H35.4941V153.941H26.6206V154.85Z" fill="url(#paint16_linear_617_10756)"/>
<path d="M44.3676 154.85H53.2412V153.941H44.3676V154.85Z" fill="url(#paint17_linear_617_10756)"/>
<path d="M137.381 374.909C138.982 375.141 140.615 375.26 142.273 375.26H146.657V376.17H142.273C140.579 376.17 138.911 376.048 137.275 375.811L137.381 374.909Z" fill="url(#paint18_linear_617_10756)"/>
<path d="M155.426 375.26H164.194V376.17H155.426V375.26Z" fill="url(#paint19_linear_617_10756)"/>
<path d="M172.963 375.26H181.732V376.17H172.963V375.26Z" fill="url(#paint20_linear_617_10756)"/>
<path d="M190.5 375.26H199.269V376.17H190.5V375.26Z" fill="url(#paint21_linear_617_10756)"/>
<path d="M208.037 375.26H216.806V376.17H208.037V375.26Z" fill="url(#paint22_linear_617_10756)"/>
<path d="M225.574 375.26H229.959V376.17H225.574V375.26Z" fill="url(#paint23_linear_617_10756)"/>
<path d="M119.474 366.681C122.051 368.877 124.893 370.709 127.937 372.109L127.623 372.949C124.512 371.519 121.607 369.646 118.974 367.402L119.474 366.681Z" fill="url(#paint24_linear_617_10756)"/>
<path d="M107.664 349.628C108.926 353.004 110.579 356.155 112.559 359.013L111.909 359.567C109.885 356.647 108.196 353.427 106.906 349.976L107.664 349.628Z" fill="url(#paint25_linear_617_10756)"/>
<path d="M104.822 333.731C104.822 335.57 104.93 337.381 105.139 339.156L104.325 339.274C104.112 337.459 104.002 335.609 104.002 333.731V327.9H104.822V333.731Z" fill="url(#paint26_linear_617_10756)"/>
<path d="M104.822 304.576V316.238H104.002V304.576H104.822Z" fill="url(#paint27_linear_617_10756)"/>
<path d="M104.822 281.252V292.914H104.002V281.252H104.822Z" fill="url(#paint28_linear_617_10756)"/>
<path d="M104.822 263.758V269.589H104.002V263.758C104.002 261.919 103.894 260.109 103.685 258.334L104.499 258.216C104.712 260.03 104.822 261.88 104.822 263.758Z" fill="url(#paint29_linear_617_10756)"/>
<path d="M96.9153 237.922C98.9389 240.842 100.628 244.063 101.918 247.513L101.16 247.862C99.898 244.486 98.2454 241.334 96.2649 238.476L96.9153 237.922Z" fill="url(#paint30_linear_617_10756)"/>
<path d="M81.2012 224.54C84.3127 225.971 87.217 227.844 89.8503 230.088L89.3506 230.809C86.7734 228.613 83.9314 226.78 80.887 225.38L81.2012 224.54Z" fill="url(#paint31_linear_617_10756)"/>
<path d="M66.5515 221.32C68.2452 221.32 69.9135 221.442 71.5495 221.678L71.4434 222.58C69.8425 222.349 68.2097 222.229 66.5515 222.229H62.1147V221.32H66.5515Z" fill="url(#paint32_linear_617_10756)"/>
<path d="M8.87354 221.32H17.7471V222.229H8.87354V221.32Z" fill="url(#paint33_linear_617_10756)"/>
<path d="M26.6206 221.32H35.4941V222.229H26.6206V221.32Z" fill="url(#paint34_linear_617_10756)"/>
<path d="M44.3676 221.32H53.2412V222.229H44.3676V221.32Z" fill="url(#paint35_linear_617_10756)"/>
<path d="M160.846 60.6879C159.467 60.6879 158.109 60.7873 156.778 60.9798L156.672 60.0779C158.038 59.8803 159.431 59.7784 160.846 59.7784H165.165V60.6879H160.846Z" fill="url(#paint36_linear_617_10756)"/>
<path d="M182.444 60.6879H173.804V59.7784H182.444V60.6879Z" fill="url(#paint37_linear_617_10756)"/>
<path d="M199.722 60.6879H191.083V59.7784H199.722V60.6879Z" fill="url(#paint38_linear_617_10756)"/>
<path d="M217 60.6879H208.361V59.7784H217V60.6879Z" fill="url(#paint39_linear_617_10756)"/>
<path d="M229.959 60.6879H225.639V59.7784H229.959V60.6879Z" fill="url(#paint40_linear_617_10756)"/>
<path d="M148.926 63.3081C146.394 64.4721 144.031 65.9959 141.888 67.822L141.388 67.1008C143.588 65.2268 146.013 63.6628 148.612 62.4679L148.926 63.3081Z" fill="url(#paint41_linear_617_10756)"/>
<path d="M136.139 74.1976C134.492 76.5739 133.118 79.1944 132.068 82.0015L131.31 81.6531C132.388 78.7715 133.798 76.082 135.488 73.6433L136.139 74.1976Z" fill="url(#paint42_linear_617_10756)"/>
<path d="M129.969 90.7089C129.795 92.185 129.705 93.6907 129.705 95.2197V102.366H128.885V95.2197C128.885 93.6512 128.977 92.1063 129.155 90.5913L129.969 90.7089Z" fill="url(#paint43_linear_617_10756)"/>
<path d="M129.705 116.658V123.805C129.705 125.44 129.634 127.057 129.494 128.652L128.677 128.563C128.815 126.998 128.885 125.41 128.885 123.805V116.658H129.705Z" fill="url(#paint44_linear_617_10756)"/>
<path d="M127.797 138.16C126.942 141.287 125.816 144.282 124.449 147.113L123.726 146.684C125.068 143.905 126.173 140.965 127.012 137.896L127.797 138.16Z" fill="url(#paint45_linear_617_10756)"/>
<path d="M119.587 155.167C117.734 157.669 115.663 159.965 113.407 162.02L112.886 161.318C115.101 159.3 117.134 157.046 118.953 154.59L119.587 155.167Z" fill="url(#paint46_linear_617_10756)"/>
<path d="M106.144 167.412C103.591 168.928 100.889 170.177 98.0698 171.124L97.832 170.253C100.599 169.324 103.251 168.098 105.756 166.61L106.144 167.412Z" fill="url(#paint47_linear_617_10756)"/>
<path d="M89.4953 173.006C88.0572 173.161 86.5991 173.241 85.1244 173.241H80.6647V172.331H85.1244C86.5725 172.331 88.0041 172.253 89.4159 172.101L89.4953 173.006Z" fill="url(#paint48_linear_617_10756)"/>
<path d="M18.2288 173.241H9.30944V172.331H18.2288V173.241Z" fill="url(#paint49_linear_617_10756)"/>
<path d="M36.0677 173.241H27.1483V172.331H36.0677V173.241Z" fill="url(#paint50_linear_617_10756)"/>
<path d="M53.9065 173.241H44.9871V172.331H53.9065V173.241Z" fill="url(#paint51_linear_617_10756)"/>
<path d="M71.7453 173.241H62.8259V172.331H71.7453V173.241Z" fill="url(#paint52_linear_617_10756)"/>
<path d="M156.778 315.174C158.109 315.367 159.467 315.466 160.846 315.466H165.165V316.375H160.846C159.431 316.375 158.038 316.273 156.672 316.076L156.778 315.174Z" fill="url(#paint53_linear_617_10756)"/>
<path d="M173.804 315.466H182.444V316.375H173.804V315.466Z" fill="url(#paint54_linear_617_10756)"/>
<path d="M191.083 315.466H199.722V316.375H191.083V315.466Z" fill="url(#paint55_linear_617_10756)"/>
<path d="M208.361 315.466H217V316.375H208.361V315.466Z" fill="url(#paint56_linear_617_10756)"/>
<path d="M225.639 315.466H229.959V316.375H225.639V315.466Z" fill="url(#paint57_linear_617_10756)"/>
<path d="M141.888 308.332C144.031 310.158 146.394 311.682 148.926 312.846L148.612 313.686C146.013 312.491 143.588 310.927 141.388 309.053L141.888 308.332Z" fill="url(#paint58_linear_617_10756)"/>
<path d="M132.068 294.152C133.118 296.959 134.492 299.58 136.139 301.956L135.488 302.51C133.798 300.072 132.388 297.382 131.31 294.501L132.068 294.152Z" fill="url(#paint59_linear_617_10756)"/>
<path d="M129.705 280.934C129.705 282.463 129.795 283.969 129.969 285.445L129.155 285.563C128.977 284.048 128.885 282.503 128.885 280.934V273.937H129.705V280.934Z" fill="url(#paint60_linear_617_10756)"/>
<path d="M129.705 252.945V259.942H128.885V252.945C128.885 251.339 128.815 249.752 128.677 248.186L129.494 248.098C129.634 249.693 129.705 251.31 129.705 252.945Z" fill="url(#paint61_linear_617_10756)"/>
<path d="M124.449 229.637C125.816 232.467 126.942 235.463 127.797 238.59L127.012 238.854C126.173 235.785 125.068 232.845 123.726 230.066L124.449 229.637Z" fill="url(#paint62_linear_617_10756)"/>
<path d="M113.407 214.729C115.663 216.785 117.734 219.081 119.587 221.583L118.953 222.16C117.134 219.704 115.101 217.45 112.886 215.432L113.407 214.729Z" fill="url(#paint63_linear_617_10756)"/>
<path d="M98.0698 205.626C100.889 206.573 103.591 207.822 106.144 209.338L105.756 210.14C103.251 208.651 100.599 207.426 97.832 206.496L98.0698 205.626Z" fill="url(#paint64_linear_617_10756)"/>
<path d="M85.1244 203.509C86.5991 203.509 88.0572 203.589 89.4953 203.744L89.4159 204.649C88.0041 204.497 86.5725 204.419 85.1244 204.419H80.6647V203.509H85.1244Z" fill="url(#paint65_linear_617_10756)"/>
<path d="M9.30944 203.509H18.2288V204.419H9.30944V203.509Z" fill="url(#paint66_linear_617_10756)"/>
<path d="M27.1483 203.509H36.0677V204.419H27.1483V203.509Z" fill="url(#paint67_linear_617_10756)"/>
<path d="M44.9871 203.509H53.9065V204.419H44.9871V203.509Z" fill="url(#paint68_linear_617_10756)"/>
<path d="M62.8259 203.509H71.7453V204.419H62.8259V203.509Z" fill="url(#paint69_linear_617_10756)"/>
<path fill-rule="evenodd" clip-rule="evenodd" d="M104.499 189.146H108.901V188.237H104.417C104.386 188.237 104.355 188.24 104.326 188.248H99.9112V189.157H104.407C104.417 189.157 104.427 189.157 104.436 189.156C104.457 189.155 104.478 189.151 104.499 189.146ZM104.564 189.116L104.572 189.112L104.419 188.703L104.417 188.702L104.407 188.697L104.564 189.116ZM104.261 188.278L104.252 188.282L104.405 188.691L104.407 188.692L104.417 188.697L104.261 188.278Z" fill="url(#paint70_linear_617_10756)"/>
<path d="M126.835 189.146H117.868V188.237H126.835V189.146Z" fill="url(#paint71_linear_617_10756)"/>
<path d="M144.77 189.146H135.803V188.237H144.77V189.146Z" fill="url(#paint72_linear_617_10756)"/>
<path d="M162.704 189.146H153.737V188.237H162.704V189.146Z" fill="url(#paint73_linear_617_10756)"/>
<path d="M180.639 189.146H171.672V188.237H180.639V189.146Z" fill="url(#paint74_linear_617_10756)"/>
<path d="M198.573 189.146H189.606V188.237H198.573V189.146Z" fill="url(#paint75_linear_617_10756)"/>
<path d="M216.508 189.146H207.541V188.237H216.508V189.146Z" fill="url(#paint76_linear_617_10756)"/>
<path d="M229.959 189.146H225.475V188.237H229.959V189.146Z" fill="url(#paint77_linear_617_10756)"/>
<path d="M18.9868 189.157H9.99523V188.248H18.9868V189.157Z" fill="url(#paint78_linear_617_10756)"/>
<path d="M36.97 189.157H27.9784V188.248H36.97V189.157Z" fill="url(#paint79_linear_617_10756)"/>
<path d="M54.9532 189.157H45.9616V188.248H54.9532V189.157Z" fill="url(#paint80_linear_617_10756)"/>
<path d="M72.9364 189.157H63.9448V188.248H72.9364V189.157Z" fill="url(#paint81_linear_617_10756)"/>
<path d="M90.9196 189.157H81.928V188.248H90.9196V189.157Z" fill="url(#paint82_linear_617_10756)"/>
<defs>
<linearGradient id="paint0_linear_617_10756" x1="-62.8372" y1="112.614" x2="277.909" y2="256.981" gradientUnits="userSpaceOnUse">
<stop stop-color="#FBFBFB" stop-opacity="0.74"/>
<stop offset="0.239583" stop-color="#FBFBFB" stop-opacity="0"/>
<stop offset="0.473958" stop-color="#FBFBFB" stop-opacity="0.72"/>
<stop offset="0.692708" stop-color="#FBFBFB" stop-opacity="0.19"/>
<stop offset="1" stop-color="#FBFBFB"/>
</linearGradient>
<linearGradient id="paint1_linear_617_10756" x1="-62.8372" y1="112.614" x2="277.909" y2="256.981" gradientUnits="userSpaceOnUse">
<stop stop-color="#FBFBFB" stop-opacity="0.74"/>
<stop offset="0.239583" stop-color="#FBFBFB" stop-opacity="0"/>
<stop offset="0.473958" stop-color="#FBFBFB" stop-opacity="0.72"/>
<stop offset="0.692708" stop-color="#FBFBFB" stop-opacity="0.19"/>
<stop offset="1" stop-color="#FBFBFB"/>
</linearGradient>
<linearGradient id="paint2_linear_617_10756" x1="-62.8372" y1="112.614" x2="277.909" y2="256.981" gradientUnits="userSpaceOnUse">
<stop stop-color="#FBFBFB" stop-opacity="0.74"/>
<stop offset="0.239583" stop-color="#FBFBFB" stop-opacity="0"/>
<stop offset="0.473958" stop-color="#FBFBFB" stop-opacity="0.72"/>
<stop offset="0.692708" stop-color="#FBFBFB" stop-opacity="0.19"/>
<stop offset="1" stop-color="#FBFBFB"/>
</linearGradient>
<linearGradient id="paint3_linear_617_10756" x1="-62.8372" y1="112.614" x2="277.909" y2="256.981" gradientUnits="userSpaceOnUse">
<stop stop-color="#FBFBFB" stop-opacity="0.74"/>
<stop offset="0.239583" stop-color="#FBFBFB" stop-opacity="0"/>
<stop offset="0.473958" stop-color="#FBFBFB" stop-opacity="0.72"/>
<stop offset="0.692708" stop-color="#FBFBFB" stop-opacity="0.19"/>
<stop offset="1" stop-color="#FBFBFB"/>
</linearGradient>
<linearGradient id="paint4_linear_617_10756" x1="-62.8372" y1="112.614" x2="277.909" y2="256.981" gradientUnits="userSpaceOnUse">
<stop stop-color="#FBFBFB" stop-opacity="0.74"/>
<stop offset="0.239583" stop-color="#FBFBFB" stop-opacity="0"/>
<stop offset="0.473958" stop-color="#FBFBFB" stop-opacity="0.72"/>
<stop offset="0.692708" stop-color="#FBFBFB" stop-opacity="0.19"/>
<stop offset="1" stop-color="#FBFBFB"/>
</linearGradient>
<linearGradient id="paint5_linear_617_10756" x1="-62.8372" y1="112.614" x2="277.909" y2="256.981" gradientUnits="userSpaceOnUse">
<stop stop-color="#FBFBFB" stop-opacity="0.74"/>
<stop offset="0.239583" stop-color="#FBFBFB" stop-opacity="0"/>
<stop offset="0.473958" stop-color="#FBFBFB" stop-opacity="0.72"/>
<stop offset="0.692708" stop-color="#FBFBFB" stop-opacity="0.19"/>
<stop offset="1" stop-color="#FBFBFB"/>
</linearGradient>
<linearGradient id="paint6_linear_617_10756" x1="-62.8372" y1="112.614" x2="277.909" y2="256.981" gradientUnits="userSpaceOnUse">
<stop stop-color="#FBFBFB" stop-opacity="0.74"/>
<stop offset="0.239583" stop-color="#FBFBFB" stop-opacity="0"/>
<stop offset="0.473958" stop-color="#FBFBFB" stop-opacity="0.72"/>
<stop offset="0.692708" stop-color="#FBFBFB" stop-opacity="0.19"/>
<stop offset="1" stop-color="#FBFBFB"/>
</linearGradient>
<linearGradient id="paint7_linear_617_10756" x1="-62.8372" y1="112.614" x2="277.909" y2="256.981" gradientUnits="userSpaceOnUse">
<stop stop-color="#FBFBFB" stop-opacity="0.74"/>
<stop offset="0.239583" stop-color="#FBFBFB" stop-opacity="0"/>
<stop offset="0.473958" stop-color="#FBFBFB" stop-opacity="0.72"/>
<stop offset="0.692708" stop-color="#FBFBFB" stop-opacity="0.19"/>
<stop offset="1" stop-color="#FBFBFB"/>
</linearGradient>
<linearGradient id="paint8_linear_617_10756" x1="-62.8372" y1="112.614" x2="277.909" y2="256.981" gradientUnits="userSpaceOnUse">
<stop stop-color="#FBFBFB" stop-opacity="0.74"/>
<stop offset="0.239583" stop-color="#FBFBFB" stop-opacity="0"/>
<stop offset="0.473958" stop-color="#FBFBFB" stop-opacity="0.72"/>
<stop offset="0.692708" stop-color="#FBFBFB" stop-opacity="0.19"/>
<stop offset="1" stop-color="#FBFBFB"/>
</linearGradient>
<linearGradient id="paint9_linear_617_10756" x1="-62.8372" y1="112.614" x2="277.909" y2="256.981" gradientUnits="userSpaceOnUse">
<stop stop-color="#FBFBFB" stop-opacity="0.74"/>
<stop offset="0.239583" stop-color="#FBFBFB" stop-opacity="0"/>
<stop offset="0.473958" stop-color="#FBFBFB" stop-opacity="0.72"/>
<stop offset="0.692708" stop-color="#FBFBFB" stop-opacity="0.19"/>
<stop offset="1" stop-color="#FBFBFB"/>
</linearGradient>
<linearGradient id="paint10_linear_617_10756" x1="-62.8372" y1="112.614" x2="277.909" y2="256.981" gradientUnits="userSpaceOnUse">
<stop stop-color="#FBFBFB" stop-opacity="0.74"/>
<stop offset="0.239583" stop-color="#FBFBFB" stop-opacity="0"/>
<stop offset="0.473958" stop-color="#FBFBFB" stop-opacity="0.72"/>
<stop offset="0.692708" stop-color="#FBFBFB" stop-opacity="0.19"/>
<stop offset="1" stop-color="#FBFBFB"/>
</linearGradient>
<linearGradient id="paint11_linear_617_10756" x1="-62.8372" y1="112.614" x2="277.909" y2="256.981" gradientUnits="userSpaceOnUse">
<stop stop-color="#FBFBFB" stop-opacity="0.74"/>
<stop offset="0.239583" stop-color="#FBFBFB" stop-opacity="0"/>
<stop offset="0.473958" stop-color="#FBFBFB" stop-opacity="0.72"/>
<stop offset="0.692708" stop-color="#FBFBFB" stop-opacity="0.19"/>
<stop offset="1" stop-color="#FBFBFB"/>
</linearGradient>
<linearGradient id="paint12_linear_617_10756" x1="-62.8372" y1="112.614" x2="277.909" y2="256.981" gradientUnits="userSpaceOnUse">
<stop stop-color="#FBFBFB" stop-opacity="0.74"/>
<stop offset="0.239583" stop-color="#FBFBFB" stop-opacity="0"/>
<stop offset="0.473958" stop-color="#FBFBFB" stop-opacity="0.72"/>
<stop offset="0.692708" stop-color="#FBFBFB" stop-opacity="0.19"/>
<stop offset="1" stop-color="#FBFBFB"/>
</linearGradient>
<linearGradient id="paint13_linear_617_10756" x1="-62.8372" y1="112.614" x2="277.909" y2="256.981" gradientUnits="userSpaceOnUse">
<stop stop-color="#FBFBFB" stop-opacity="0.74"/>
<stop offset="0.239583" stop-color="#FBFBFB" stop-opacity="0"/>
<stop offset="0.473958" stop-color="#FBFBFB" stop-opacity="0.72"/>
<stop offset="0.692708" stop-color="#FBFBFB" stop-opacity="0.19"/>
<stop offset="1" stop-color="#FBFBFB"/>
</linearGradient>
<linearGradient id="paint14_linear_617_10756" x1="-62.8372" y1="112.614" x2="277.909" y2="256.981" gradientUnits="userSpaceOnUse">
<stop stop-color="#FBFBFB" stop-opacity="0.74"/>
<stop offset="0.239583" stop-color="#FBFBFB" stop-opacity="0"/>
<stop offset="0.473958" stop-color="#FBFBFB" stop-opacity="0.72"/>
<stop offset="0.692708" stop-color="#FBFBFB" stop-opacity="0.19"/>
<stop offset="1" stop-color="#FBFBFB"/>
</linearGradient>
<linearGradient id="paint15_linear_617_10756" x1="-62.8372" y1="112.614" x2="277.909" y2="256.981" gradientUnits="userSpaceOnUse">
<stop stop-color="#FBFBFB" stop-opacity="0.74"/>
<stop offset="0.239583" stop-color="#FBFBFB" stop-opacity="0"/>
<stop offset="0.473958" stop-color="#FBFBFB" stop-opacity="0.72"/>
<stop offset="0.692708" stop-color="#FBFBFB" stop-opacity="0.19"/>
<stop offset="1" stop-color="#FBFBFB"/>
</linearGradient>
<linearGradient id="paint16_linear_617_10756" x1="-62.8372" y1="112.614" x2="277.909" y2="256.981" gradientUnits="userSpaceOnUse">
<stop stop-color="#FBFBFB" stop-opacity="0.74"/>
<stop offset="0.239583" stop-color="#FBFBFB" stop-opacity="0"/>
<stop offset="0.473958" stop-color="#FBFBFB" stop-opacity="0.72"/>
<stop offset="0.692708" stop-color="#FBFBFB" stop-opacity="0.19"/>
<stop offset="1" stop-color="#FBFBFB"/>
</linearGradient>
<linearGradient id="paint17_linear_617_10756" x1="-62.8372" y1="112.614" x2="277.909" y2="256.981" gradientUnits="userSpaceOnUse">
<stop stop-color="#FBFBFB" stop-opacity="0.74"/>
<stop offset="0.239583" stop-color="#FBFBFB" stop-opacity="0"/>
<stop offset="0.473958" stop-color="#FBFBFB" stop-opacity="0.72"/>
<stop offset="0.692708" stop-color="#FBFBFB" stop-opacity="0.19"/>
<stop offset="1" stop-color="#FBFBFB"/>
</linearGradient>
<linearGradient id="paint18_linear_617_10756" x1="-62.8372" y1="112.614" x2="277.909" y2="256.981" gradientUnits="userSpaceOnUse">
<stop stop-color="#FBFBFB" stop-opacity="0.74"/>
<stop offset="0.239583" stop-color="#FBFBFB" stop-opacity="0"/>
<stop offset="0.473958" stop-color="#FBFBFB" stop-opacity="0.72"/>
<stop offset="0.692708" stop-color="#FBFBFB" stop-opacity="0.19"/>
<stop offset="1" stop-color="#FBFBFB"/>
</linearGradient>
<linearGradient id="paint19_linear_617_10756" x1="-62.8372" y1="112.614" x2="277.909" y2="256.981" gradientUnits="userSpaceOnUse">
<stop stop-color="#FBFBFB" stop-opacity="0.74"/>
<stop offset="0.239583" stop-color="#FBFBFB" stop-opacity="0"/>
<stop offset="0.473958" stop-color="#FBFBFB" stop-opacity="0.72"/>
<stop offset="0.692708" stop-color="#FBFBFB" stop-opacity="0.19"/>
<stop offset="1" stop-color="#FBFBFB"/>
</linearGradient>
<linearGradient id="paint20_linear_617_10756" x1="-62.8372" y1="112.614" x2="277.909" y2="256.981" gradientUnits="userSpaceOnUse">
<stop stop-color="#FBFBFB" stop-opacity="0.74"/>
<stop offset="0.239583" stop-color="#FBFBFB" stop-opacity="0"/>
<stop offset="0.473958" stop-color="#FBFBFB" stop-opacity="0.72"/>
<stop offset="0.692708" stop-color="#FBFBFB" stop-opacity="0.19"/>
<stop offset="1" stop-color="#FBFBFB"/>
</linearGradient>
<linearGradient id="paint21_linear_617_10756" x1="-62.8372" y1="112.614" x2="277.909" y2="256.981" gradientUnits="userSpaceOnUse">
<stop stop-color="#FBFBFB" stop-opacity="0.74"/>
<stop offset="0.239583" stop-color="#FBFBFB" stop-opacity="0"/>
<stop offset="0.473958" stop-color="#FBFBFB" stop-opacity="0.72"/>
<stop offset="0.692708" stop-color="#FBFBFB" stop-opacity="0.19"/>
<stop offset="1" stop-color="#FBFBFB"/>
</linearGradient>
<linearGradient id="paint22_linear_617_10756" x1="-62.8372" y1="112.614" x2="277.909" y2="256.981" gradientUnits="userSpaceOnUse">
<stop stop-color="#FBFBFB" stop-opacity="0.74"/>
<stop offset="0.239583" stop-color="#FBFBFB" stop-opacity="0"/>
<stop offset="0.473958" stop-color="#FBFBFB" stop-opacity="0.72"/>
<stop offset="0.692708" stop-color="#FBFBFB" stop-opacity="0.19"/>
<stop offset="1" stop-color="#FBFBFB"/>
</linearGradient>
<linearGradient id="paint23_linear_617_10756" x1="-62.8372" y1="112.614" x2="277.909" y2="256.981" gradientUnits="userSpaceOnUse">
<stop stop-color="#FBFBFB" stop-opacity="0.74"/>
<stop offset="0.239583" stop-color="#FBFBFB" stop-opacity="0"/>
<stop offset="0.473958" stop-color="#FBFBFB" stop-opacity="0.72"/>
<stop offset="0.692708" stop-color="#FBFBFB" stop-opacity="0.19"/>
<stop offset="1" stop-color="#FBFBFB"/>
</linearGradient>
<linearGradient id="paint24_linear_617_10756" x1="-62.8372" y1="112.614" x2="277.909" y2="256.981" gradientUnits="userSpaceOnUse">
<stop stop-color="#FBFBFB" stop-opacity="0.74"/>
<stop offset="0.239583" stop-color="#FBFBFB" stop-opacity="0"/>
<stop offset="0.473958" stop-color="#FBFBFB" stop-opacity="0.72"/>
<stop offset="0.692708" stop-color="#FBFBFB" stop-opacity="0.19"/>
<stop offset="1" stop-color="#FBFBFB"/>
</linearGradient>
<linearGradient id="paint25_linear_617_10756" x1="-62.8372" y1="112.614" x2="277.909" y2="256.981" gradientUnits="userSpaceOnUse">
<stop stop-color="#FBFBFB" stop-opacity="0.74"/>
<stop offset="0.239583" stop-color="#FBFBFB" stop-opacity="0"/>
<stop offset="0.473958" stop-color="#FBFBFB" stop-opacity="0.72"/>
<stop offset="0.692708" stop-color="#FBFBFB" stop-opacity="0.19"/>
<stop offset="1" stop-color="#FBFBFB"/>
</linearGradient>
<linearGradient id="paint26_linear_617_10756" x1="-62.8372" y1="112.614" x2="277.909" y2="256.981" gradientUnits="userSpaceOnUse">
<stop stop-color="#FBFBFB" stop-opacity="0.74"/>
<stop offset="0.239583" stop-color="#FBFBFB" stop-opacity="0"/>
<stop offset="0.473958" stop-color="#FBFBFB" stop-opacity="0.72"/>
<stop offset="0.692708" stop-color="#FBFBFB" stop-opacity="0.19"/>
<stop offset="1" stop-color="#FBFBFB"/>
</linearGradient>
<linearGradient id="paint27_linear_617_10756" x1="-62.8372" y1="112.614" x2="277.909" y2="256.981" gradientUnits="userSpaceOnUse">
<stop stop-color="#FBFBFB" stop-opacity="0.74"/>
<stop offset="0.239583" stop-color="#FBFBFB" stop-opacity="0"/>
<stop offset="0.473958" stop-color="#FBFBFB" stop-opacity="0.72"/>
<stop offset="0.692708" stop-color="#FBFBFB" stop-opacity="0.19"/>
<stop offset="1" stop-color="#FBFBFB"/>
</linearGradient>
<linearGradient id="paint28_linear_617_10756" x1="-62.8372" y1="112.614" x2="277.909" y2="256.981" gradientUnits="userSpaceOnUse">
<stop stop-color="#FBFBFB" stop-opacity="0.74"/>
<stop offset="0.239583" stop-color="#FBFBFB" stop-opacity="0"/>
<stop offset="0.473958" stop-color="#FBFBFB" stop-opacity="0.72"/>
<stop offset="0.692708" stop-color="#FBFBFB" stop-opacity="0.19"/>
<stop offset="1" stop-color="#FBFBFB"/>
</linearGradient>
<linearGradient id="paint29_linear_617_10756" x1="-62.8372" y1="112.614" x2="277.909" y2="256.981" gradientUnits="userSpaceOnUse">
<stop stop-color="#FBFBFB" stop-opacity="0.74"/>
<stop offset="0.239583" stop-color="#FBFBFB" stop-opacity="0"/>
<stop offset="0.473958" stop-color="#FBFBFB" stop-opacity="0.72"/>
<stop offset="0.692708" stop-color="#FBFBFB" stop-opacity="0.19"/>
<stop offset="1" stop-color="#FBFBFB"/>
</linearGradient>
<linearGradient id="paint30_linear_617_10756" x1="-62.8372" y1="112.614" x2="277.909" y2="256.981" gradientUnits="userSpaceOnUse">
<stop stop-color="#FBFBFB" stop-opacity="0.74"/>
<stop offset="0.239583" stop-color="#FBFBFB" stop-opacity="0"/>
<stop offset="0.473958" stop-color="#FBFBFB" stop-opacity="0.72"/>
<stop offset="0.692708" stop-color="#FBFBFB" stop-opacity="0.19"/>
<stop offset="1" stop-color="#FBFBFB"/>
</linearGradient>
<linearGradient id="paint31_linear_617_10756" x1="-62.8372" y1="112.614" x2="277.909" y2="256.981" gradientUnits="userSpaceOnUse">
<stop stop-color="#FBFBFB" stop-opacity="0.74"/>
<stop offset="0.239583" stop-color="#FBFBFB" stop-opacity="0"/>
<stop offset="0.473958" stop-color="#FBFBFB" stop-opacity="0.72"/>
<stop offset="0.692708" stop-color="#FBFBFB" stop-opacity="0.19"/>
<stop offset="1" stop-color="#FBFBFB"/>
</linearGradient>
<linearGradient id="paint32_linear_617_10756" x1="-62.8372" y1="112.614" x2="277.909" y2="256.981" gradientUnits="userSpaceOnUse">
<stop stop-color="#FBFBFB" stop-opacity="0.74"/>
<stop offset="0.239583" stop-color="#FBFBFB" stop-opacity="0"/>
<stop offset="0.473958" stop-color="#FBFBFB" stop-opacity="0.72"/>
<stop offset="0.692708" stop-color="#FBFBFB" stop-opacity="0.19"/>
<stop offset="1" stop-color="#FBFBFB"/>
</linearGradient>
<linearGradient id="paint33_linear_617_10756" x1="-62.8372" y1="112.614" x2="277.909" y2="256.981" gradientUnits="userSpaceOnUse">
<stop stop-color="#FBFBFB" stop-opacity="0.74"/>
<stop offset="0.239583" stop-color="#FBFBFB" stop-opacity="0"/>
<stop offset="0.473958" stop-color="#FBFBFB" stop-opacity="0.72"/>
<stop offset="0.692708" stop-color="#FBFBFB" stop-opacity="0.19"/>
<stop offset="1" stop-color="#FBFBFB"/>
</linearGradient>
<linearGradient id="paint34_linear_617_10756" x1="-62.8372" y1="112.614" x2="277.909" y2="256.981" gradientUnits="userSpaceOnUse">
<stop stop-color="#FBFBFB" stop-opacity="0.74"/>
<stop offset="0.239583" stop-color="#FBFBFB" stop-opacity="0"/>
<stop offset="0.473958" stop-color="#FBFBFB" stop-opacity="0.72"/>
<stop offset="0.692708" stop-color="#FBFBFB" stop-opacity="0.19"/>
<stop offset="1" stop-color="#FBFBFB"/>
</linearGradient>
<linearGradient id="paint35_linear_617_10756" x1="-62.8372" y1="112.614" x2="277.909" y2="256.981" gradientUnits="userSpaceOnUse">
<stop stop-color="#FBFBFB" stop-opacity="0.74"/>
<stop offset="0.239583" stop-color="#FBFBFB" stop-opacity="0"/>
<stop offset="0.473958" stop-color="#FBFBFB" stop-opacity="0.72"/>
<stop offset="0.692708" stop-color="#FBFBFB" stop-opacity="0.19"/>
<stop offset="1" stop-color="#FBFBFB"/>
</linearGradient>
<linearGradient id="paint36_linear_617_10756" x1="-62.8372" y1="112.614" x2="277.909" y2="256.981" gradientUnits="userSpaceOnUse">
<stop stop-color="#FBFBFB" stop-opacity="0.74"/>
<stop offset="0.239583" stop-color="#FBFBFB" stop-opacity="0"/>
<stop offset="0.473958" stop-color="#FBFBFB" stop-opacity="0.72"/>
<stop offset="0.692708" stop-color="#FBFBFB" stop-opacity="0.19"/>
<stop offset="1" stop-color="#FBFBFB"/>
</linearGradient>
<linearGradient id="paint37_linear_617_10756" x1="-62.8372" y1="112.614" x2="277.909" y2="256.981" gradientUnits="userSpaceOnUse">
<stop stop-color="#FBFBFB" stop-opacity="0.74"/>
<stop offset="0.239583" stop-color="#FBFBFB" stop-opacity="0"/>
<stop offset="0.473958" stop-color="#FBFBFB" stop-opacity="0.72"/>
<stop offset="0.692708" stop-color="#FBFBFB" stop-opacity="0.19"/>
<stop offset="1" stop-color="#FBFBFB"/>
</linearGradient>
<linearGradient id="paint38_linear_617_10756" x1="-62.8372" y1="112.614" x2="277.909" y2="256.981" gradientUnits="userSpaceOnUse">
<stop stop-color="#FBFBFB" stop-opacity="0.74"/>
<stop offset="0.239583" stop-color="#FBFBFB" stop-opacity="0"/>
<stop offset="0.473958" stop-color="#FBFBFB" stop-opacity="0.72"/>
<stop offset="0.692708" stop-color="#FBFBFB" stop-opacity="0.19"/>
<stop offset="1" stop-color="#FBFBFB"/>
</linearGradient>
<linearGradient id="paint39_linear_617_10756" x1="-62.8372" y1="112.614" x2="277.909" y2="256.981" gradientUnits="userSpaceOnUse">
<stop stop-color="#FBFBFB" stop-opacity="0.74"/>
<stop offset="0.239583" stop-color="#FBFBFB" stop-opacity="0"/>
<stop offset="0.473958" stop-color="#FBFBFB" stop-opacity="0.72"/>
<stop offset="0.692708" stop-color="#FBFBFB" stop-opacity="0.19"/>
<stop offset="1" stop-color="#FBFBFB"/>
</linearGradient>
<linearGradient id="paint40_linear_617_10756" x1="-62.8372" y1="112.614" x2="277.909" y2="256.981" gradientUnits="userSpaceOnUse">
<stop stop-color="#FBFBFB" stop-opacity="0.74"/>
<stop offset="0.239583" stop-color="#FBFBFB" stop-opacity="0"/>
<stop offset="0.473958" stop-color="#FBFBFB" stop-opacity="0.72"/>
<stop offset="0.692708" stop-color="#FBFBFB" stop-opacity="0.19"/>
<stop offset="1" stop-color="#FBFBFB"/>
</linearGradient>
<linearGradient id="paint41_linear_617_10756" x1="-62.8372" y1="112.614" x2="277.909" y2="256.981" gradientUnits="userSpaceOnUse">
<stop stop-color="#FBFBFB" stop-opacity="0.74"/>
<stop offset="0.239583" stop-color="#FBFBFB" stop-opacity="0"/>
<stop offset="0.473958" stop-color="#FBFBFB" stop-opacity="0.72"/>
<stop offset="0.692708" stop-color="#FBFBFB" stop-opacity="0.19"/>
<stop offset="1" stop-color="#FBFBFB"/>
</linearGradient>
<linearGradient id="paint42_linear_617_10756" x1="-62.8372" y1="112.614" x2="277.909" y2="256.981" gradientUnits="userSpaceOnUse">
<stop stop-color="#FBFBFB" stop-opacity="0.74"/>
<stop offset="0.239583" stop-color="#FBFBFB" stop-opacity="0"/>
<stop offset="0.473958" stop-color="#FBFBFB" stop-opacity="0.72"/>
<stop offset="0.692708" stop-color="#FBFBFB" stop-opacity="0.19"/>
<stop offset="1" stop-color="#FBFBFB"/>
</linearGradient>
<linearGradient id="paint43_linear_617_10756" x1="-62.8372" y1="112.614" x2="277.909" y2="256.981" gradientUnits="userSpaceOnUse">
<stop stop-color="#FBFBFB" stop-opacity="0.74"/>
<stop offset="0.239583" stop-color="#FBFBFB" stop-opacity="0"/>
<stop offset="0.473958" stop-color="#FBFBFB" stop-opacity="0.72"/>
<stop offset="0.692708" stop-color="#FBFBFB" stop-opacity="0.19"/>
<stop offset="1" stop-color="#FBFBFB"/>
</linearGradient>
<linearGradient id="paint44_linear_617_10756" x1="-62.8372" y1="112.614" x2="277.909" y2="256.981" gradientUnits="userSpaceOnUse">
<stop stop-color="#FBFBFB" stop-opacity="0.74"/>
<stop offset="0.239583" stop-color="#FBFBFB" stop-opacity="0"/>
<stop offset="0.473958" stop-color="#FBFBFB" stop-opacity="0.72"/>
<stop offset="0.692708" stop-color="#FBFBFB" stop-opacity="0.19"/>
<stop offset="1" stop-color="#FBFBFB"/>
</linearGradient>
<linearGradient id="paint45_linear_617_10756" x1="-62.8372" y1="112.614" x2="277.909" y2="256.981" gradientUnits="userSpaceOnUse">
<stop stop-color="#FBFBFB" stop-opacity="0.74"/>
<stop offset="0.239583" stop-color="#FBFBFB" stop-opacity="0"/>
<stop offset="0.473958" stop-color="#FBFBFB" stop-opacity="0.72"/>
<stop offset="0.692708" stop-color="#FBFBFB" stop-opacity="0.19"/>
<stop offset="1" stop-color="#FBFBFB"/>
</linearGradient>
<linearGradient id="paint46_linear_617_10756" x1="-62.8372" y1="112.614" x2="277.909" y2="256.981" gradientUnits="userSpaceOnUse">
<stop stop-color="#FBFBFB" stop-opacity="0.74"/>
<stop offset="0.239583" stop-color="#FBFBFB" stop-opacity="0"/>
<stop offset="0.473958" stop-color="#FBFBFB" stop-opacity="0.72"/>
<stop offset="0.692708" stop-color="#FBFBFB" stop-opacity="0.19"/>
<stop offset="1" stop-color="#FBFBFB"/>
</linearGradient>
<linearGradient id="paint47_linear_617_10756" x1="-62.8372" y1="112.614" x2="277.909" y2="256.981" gradientUnits="userSpaceOnUse">
<stop stop-color="#FBFBFB" stop-opacity="0.74"/>
<stop offset="0.239583" stop-color="#FBFBFB" stop-opacity="0"/>
<stop offset="0.473958" stop-color="#FBFBFB" stop-opacity="0.72"/>
<stop offset="0.692708" stop-color="#FBFBFB" stop-opacity="0.19"/>
<stop offset="1" stop-color="#FBFBFB"/>
</linearGradient>
<linearGradient id="paint48_linear_617_10756" x1="-62.8372" y1="112.614" x2="277.909" y2="256.981" gradientUnits="userSpaceOnUse">
<stop stop-color="#FBFBFB" stop-opacity="0.74"/>
<stop offset="0.239583" stop-color="#FBFBFB" stop-opacity="0"/>
<stop offset="0.473958" stop-color="#FBFBFB" stop-opacity="0.72"/>
<stop offset="0.692708" stop-color="#FBFBFB" stop-opacity="0.19"/>
<stop offset="1" stop-color="#FBFBFB"/>
</linearGradient>
<linearGradient id="paint49_linear_617_10756" x1="-62.8372" y1="112.614" x2="277.909" y2="256.981" gradientUnits="userSpaceOnUse">
<stop stop-color="#FBFBFB" stop-opacity="0.74"/>
<stop offset="0.239583" stop-color="#FBFBFB" stop-opacity="0"/>
<stop offset="0.473958" stop-color="#FBFBFB" stop-opacity="0.72"/>
<stop offset="0.692708" stop-color="#FBFBFB" stop-opacity="0.19"/>
<stop offset="1" stop-color="#FBFBFB"/>
</linearGradient>
<linearGradient id="paint50_linear_617_10756" x1="-62.8372" y1="112.614" x2="277.909" y2="256.981" gradientUnits="userSpaceOnUse">
<stop stop-color="#FBFBFB" stop-opacity="0.74"/>
<stop offset="0.239583" stop-color="#FBFBFB" stop-opacity="0"/>
<stop offset="0.473958" stop-color="#FBFBFB" stop-opacity="0.72"/>
<stop offset="0.692708" stop-color="#FBFBFB" stop-opacity="0.19"/>
<stop offset="1" stop-color="#FBFBFB"/>
</linearGradient>
<linearGradient id="paint51_linear_617_10756" x1="-62.8372" y1="112.614" x2="277.909" y2="256.981" gradientUnits="userSpaceOnUse">
<stop stop-color="#FBFBFB" stop-opacity="0.74"/>
<stop offset="0.239583" stop-color="#FBFBFB" stop-opacity="0"/>
<stop offset="0.473958" stop-color="#FBFBFB" stop-opacity="0.72"/>
<stop offset="0.692708" stop-color="#FBFBFB" stop-opacity="0.19"/>
<stop offset="1" stop-color="#FBFBFB"/>
</linearGradient>
<linearGradient id="paint52_linear_617_10756" x1="-62.8372" y1="112.614" x2="277.909" y2="256.981" gradientUnits="userSpaceOnUse">
<stop stop-color="#FBFBFB" stop-opacity="0.74"/>
<stop offset="0.239583" stop-color="#FBFBFB" stop-opacity="0"/>
<stop offset="0.473958" stop-color="#FBFBFB" stop-opacity="0.72"/>
<stop offset="0.692708" stop-color="#FBFBFB" stop-opacity="0.19"/>
<stop offset="1" stop-color="#FBFBFB"/>
</linearGradient>
<linearGradient id="paint53_linear_617_10756" x1="-62.8372" y1="112.614" x2="277.909" y2="256.981" gradientUnits="userSpaceOnUse">
<stop stop-color="#FBFBFB" stop-opacity="0.74"/>
<stop offset="0.239583" stop-color="#FBFBFB" stop-opacity="0"/>
<stop offset="0.473958" stop-color="#FBFBFB" stop-opacity="0.72"/>
<stop offset="0.692708" stop-color="#FBFBFB" stop-opacity="0.19"/>
<stop offset="1" stop-color="#FBFBFB"/>
</linearGradient>
<linearGradient id="paint54_linear_617_10756" x1="-62.8372" y1="112.614" x2="277.909" y2="256.981" gradientUnits="userSpaceOnUse">
<stop stop-color="#FBFBFB" stop-opacity="0.74"/>
<stop offset="0.239583" stop-color="#FBFBFB" stop-opacity="0"/>
<stop offset="0.473958" stop-color="#FBFBFB" stop-opacity="0.72"/>
<stop offset="0.692708" stop-color="#FBFBFB" stop-opacity="0.19"/>
<stop offset="1" stop-color="#FBFBFB"/>
</linearGradient>
<linearGradient id="paint55_linear_617_10756" x1="-62.8372" y1="112.614" x2="277.909" y2="256.981" gradientUnits="userSpaceOnUse">
<stop stop-color="#FBFBFB" stop-opacity="0.74"/>
<stop offset="0.239583" stop-color="#FBFBFB" stop-opacity="0"/>
<stop offset="0.473958" stop-color="#FBFBFB" stop-opacity="0.72"/>
<stop offset="0.692708" stop-color="#FBFBFB" stop-opacity="0.19"/>
<stop offset="1" stop-color="#FBFBFB"/>
</linearGradient>
<linearGradient id="paint56_linear_617_10756" x1="-62.8372" y1="112.614" x2="277.909" y2="256.981" gradientUnits="userSpaceOnUse">
<stop stop-color="#FBFBFB" stop-opacity="0.74"/>
<stop offset="0.239583" stop-color="#FBFBFB" stop-opacity="0"/>
<stop offset="0.473958" stop-color="#FBFBFB" stop-opacity="0.72"/>
<stop offset="0.692708" stop-color="#FBFBFB" stop-opacity="0.19"/>
<stop offset="1" stop-color="#FBFBFB"/>
</linearGradient>
<linearGradient id="paint57_linear_617_10756" x1="-62.8372" y1="112.614" x2="277.909" y2="256.981" gradientUnits="userSpaceOnUse">
<stop stop-color="#FBFBFB" stop-opacity="0.74"/>
<stop offset="0.239583" stop-color="#FBFBFB" stop-opacity="0"/>
<stop offset="0.473958" stop-color="#FBFBFB" stop-opacity="0.72"/>
<stop offset="0.692708" stop-color="#FBFBFB" stop-opacity="0.19"/>
<stop offset="1" stop-color="#FBFBFB"/>
</linearGradient>
<linearGradient id="paint58_linear_617_10756" x1="-62.8372" y1="112.614" x2="277.909" y2="256.981" gradientUnits="userSpaceOnUse">
<stop stop-color="#FBFBFB" stop-opacity="0.74"/>
<stop offset="0.239583" stop-color="#FBFBFB" stop-opacity="0"/>
<stop offset="0.473958" stop-color="#FBFBFB" stop-opacity="0.72"/>
<stop offset="0.692708" stop-color="#FBFBFB" stop-opacity="0.19"/>
<stop offset="1" stop-color="#FBFBFB"/>
</linearGradient>
<linearGradient id="paint59_linear_617_10756" x1="-62.8372" y1="112.614" x2="277.909" y2="256.981" gradientUnits="userSpaceOnUse">
<stop stop-color="#FBFBFB" stop-opacity="0.74"/>
<stop offset="0.239583" stop-color="#FBFBFB" stop-opacity="0"/>
<stop offset="0.473958" stop-color="#FBFBFB" stop-opacity="0.72"/>
<stop offset="0.692708" stop-color="#FBFBFB" stop-opacity="0.19"/>
<stop offset="1" stop-color="#FBFBFB"/>
</linearGradient>
<linearGradient id="paint60_linear_617_10756" x1="-62.8372" y1="112.614" x2="277.909" y2="256.981" gradientUnits="userSpaceOnUse">
<stop stop-color="#FBFBFB" stop-opacity="0.74"/>
<stop offset="0.239583" stop-color="#FBFBFB" stop-opacity="0"/>
<stop offset="0.473958" stop-color="#FBFBFB" stop-opacity="0.72"/>
<stop offset="0.692708" stop-color="#FBFBFB" stop-opacity="0.19"/>
<stop offset="1" stop-color="#FBFBFB"/>
</linearGradient>
<linearGradient id="paint61_linear_617_10756" x1="-62.8372" y1="112.614" x2="277.909" y2="256.981" gradientUnits="userSpaceOnUse">
<stop stop-color="#FBFBFB" stop-opacity="0.74"/>
<stop offset="0.239583" stop-color="#FBFBFB" stop-opacity="0"/>
<stop offset="0.473958" stop-color="#FBFBFB" stop-opacity="0.72"/>
<stop offset="0.692708" stop-color="#FBFBFB" stop-opacity="0.19"/>
<stop offset="1" stop-color="#FBFBFB"/>
</linearGradient>
<linearGradient id="paint62_linear_617_10756" x1="-62.8372" y1="112.614" x2="277.909" y2="256.981" gradientUnits="userSpaceOnUse">
<stop stop-color="#FBFBFB" stop-opacity="0.74"/>
<stop offset="0.239583" stop-color="#FBFBFB" stop-opacity="0"/>
<stop offset="0.473958" stop-color="#FBFBFB" stop-opacity="0.72"/>
<stop offset="0.692708" stop-color="#FBFBFB" stop-opacity="0.19"/>
<stop offset="1" stop-color="#FBFBFB"/>
</linearGradient>
<linearGradient id="paint63_linear_617_10756" x1="-62.8372" y1="112.614" x2="277.909" y2="256.981" gradientUnits="userSpaceOnUse">
<stop stop-color="#FBFBFB" stop-opacity="0.74"/>
<stop offset="0.239583" stop-color="#FBFBFB" stop-opacity="0"/>
<stop offset="0.473958" stop-color="#FBFBFB" stop-opacity="0.72"/>
<stop offset="0.692708" stop-color="#FBFBFB" stop-opacity="0.19"/>
<stop offset="1" stop-color="#FBFBFB"/>
</linearGradient>
<linearGradient id="paint64_linear_617_10756" x1="-62.8372" y1="112.614" x2="277.909" y2="256.981" gradientUnits="userSpaceOnUse">
<stop stop-color="#FBFBFB" stop-opacity="0.74"/>
<stop offset="0.239583" stop-color="#FBFBFB" stop-opacity="0"/>
<stop offset="0.473958" stop-color="#FBFBFB" stop-opacity="0.72"/>
<stop offset="0.692708" stop-color="#FBFBFB" stop-opacity="0.19"/>
<stop offset="1" stop-color="#FBFBFB"/>
</linearGradient>
<linearGradient id="paint65_linear_617_10756" x1="-62.8372" y1="112.614" x2="277.909" y2="256.981" gradientUnits="userSpaceOnUse">
<stop stop-color="#FBFBFB" stop-opacity="0.74"/>
<stop offset="0.239583" stop-color="#FBFBFB" stop-opacity="0"/>
<stop offset="0.473958" stop-color="#FBFBFB" stop-opacity="0.72"/>
<stop offset="0.692708" stop-color="#FBFBFB" stop-opacity="0.19"/>
<stop offset="1" stop-color="#FBFBFB"/>
</linearGradient>
<linearGradient id="paint66_linear_617_10756" x1="-62.8372" y1="112.614" x2="277.909" y2="256.981" gradientUnits="userSpaceOnUse">
<stop stop-color="#FBFBFB" stop-opacity="0.74"/>
<stop offset="0.239583" stop-color="#FBFBFB" stop-opacity="0"/>
<stop offset="0.473958" stop-color="#FBFBFB" stop-opacity="0.72"/>
<stop offset="0.692708" stop-color="#FBFBFB" stop-opacity="0.19"/>
<stop offset="1" stop-color="#FBFBFB"/>
</linearGradient>
<linearGradient id="paint67_linear_617_10756" x1="-62.8372" y1="112.614" x2="277.909" y2="256.981" gradientUnits="userSpaceOnUse">
<stop stop-color="#FBFBFB" stop-opacity="0.74"/>
<stop offset="0.239583" stop-color="#FBFBFB" stop-opacity="0"/>
<stop offset="0.473958" stop-color="#FBFBFB" stop-opacity="0.72"/>
<stop offset="0.692708" stop-color="#FBFBFB" stop-opacity="0.19"/>
<stop offset="1" stop-color="#FBFBFB"/>
</linearGradient>
<linearGradient id="paint68_linear_617_10756" x1="-62.8372" y1="112.614" x2="277.909" y2="256.981" gradientUnits="userSpaceOnUse">
<stop stop-color="#FBFBFB" stop-opacity="0.74"/>
<stop offset="0.239583" stop-color="#FBFBFB" stop-opacity="0"/>
<stop offset="0.473958" stop-color="#FBFBFB" stop-opacity="0.72"/>
<stop offset="0.692708" stop-color="#FBFBFB" stop-opacity="0.19"/>
<stop offset="1" stop-color="#FBFBFB"/>
</linearGradient>
<linearGradient id="paint69_linear_617_10756" x1="-62.8372" y1="112.614" x2="277.909" y2="256.981" gradientUnits="userSpaceOnUse">
<stop stop-color="#FBFBFB" stop-opacity="0.74"/>
<stop offset="0.239583" stop-color="#FBFBFB" stop-opacity="0"/>
<stop offset="0.473958" stop-color="#FBFBFB" stop-opacity="0.72"/>
<stop offset="0.692708" stop-color="#FBFBFB" stop-opacity="0.19"/>
<stop offset="1" stop-color="#FBFBFB"/>
</linearGradient>
<linearGradient id="paint70_linear_617_10756" x1="-62.8372" y1="112.614" x2="277.909" y2="256.981" gradientUnits="userSpaceOnUse">
<stop stop-color="#FBFBFB" stop-opacity="0.74"/>
<stop offset="0.239583" stop-color="#FBFBFB" stop-opacity="0"/>
<stop offset="0.473958" stop-color="#FBFBFB" stop-opacity="0.72"/>
<stop offset="0.692708" stop-color="#FBFBFB" stop-opacity="0.19"/>
<stop offset="1" stop-color="#FBFBFB"/>
</linearGradient>
<linearGradient id="paint71_linear_617_10756" x1="-62.8372" y1="112.614" x2="277.909" y2="256.981" gradientUnits="userSpaceOnUse">
<stop stop-color="#FBFBFB" stop-opacity="0.74"/>
<stop offset="0.239583" stop-color="#FBFBFB" stop-opacity="0"/>
<stop offset="0.473958" stop-color="#FBFBFB" stop-opacity="0.72"/>
<stop offset="0.692708" stop-color="#FBFBFB" stop-opacity="0.19"/>
<stop offset="1" stop-color="#FBFBFB"/>
</linearGradient>
<linearGradient id="paint72_linear_617_10756" x1="-62.8372" y1="112.614" x2="277.909" y2="256.981" gradientUnits="userSpaceOnUse">
<stop stop-color="#FBFBFB" stop-opacity="0.74"/>
<stop offset="0.239583" stop-color="#FBFBFB" stop-opacity="0"/>
<stop offset="0.473958" stop-color="#FBFBFB" stop-opacity="0.72"/>
<stop offset="0.692708" stop-color="#FBFBFB" stop-opacity="0.19"/>
<stop offset="1" stop-color="#FBFBFB"/>
</linearGradient>
<linearGradient id="paint73_linear_617_10756" x1="-62.8372" y1="112.614" x2="277.909" y2="256.981" gradientUnits="userSpaceOnUse">
<stop stop-color="#FBFBFB" stop-opacity="0.74"/>
<stop offset="0.239583" stop-color="#FBFBFB" stop-opacity="0"/>
<stop offset="0.473958" stop-color="#FBFBFB" stop-opacity="0.72"/>
<stop offset="0.692708" stop-color="#FBFBFB" stop-opacity="0.19"/>
<stop offset="1" stop-color="#FBFBFB"/>
</linearGradient>
<linearGradient id="paint74_linear_617_10756" x1="-62.8372" y1="112.614" x2="277.909" y2="256.981" gradientUnits="userSpaceOnUse">
<stop stop-color="#FBFBFB" stop-opacity="0.74"/>
<stop offset="0.239583" stop-color="#FBFBFB" stop-opacity="0"/>
<stop offset="0.473958" stop-color="#FBFBFB" stop-opacity="0.72"/>
<stop offset="0.692708" stop-color="#FBFBFB" stop-opacity="0.19"/>
<stop offset="1" stop-color="#FBFBFB"/>
</linearGradient>
<linearGradient id="paint75_linear_617_10756" x1="-62.8372" y1="112.614" x2="277.909" y2="256.981" gradientUnits="userSpaceOnUse">
<stop stop-color="#FBFBFB" stop-opacity="0.74"/>
<stop offset="0.239583" stop-color="#FBFBFB" stop-opacity="0"/>
<stop offset="0.473958" stop-color="#FBFBFB" stop-opacity="0.72"/>
<stop offset="0.692708" stop-color="#FBFBFB" stop-opacity="0.19"/>
<stop offset="1" stop-color="#FBFBFB"/>
</linearGradient>
<linearGradient id="paint76_linear_617_10756" x1="-62.8372" y1="112.614" x2="277.909" y2="256.981" gradientUnits="userSpaceOnUse">
<stop stop-color="#FBFBFB" stop-opacity="0.74"/>
<stop offset="0.239583" stop-color="#FBFBFB" stop-opacity="0"/>
<stop offset="0.473958" stop-color="#FBFBFB" stop-opacity="0.72"/>
<stop offset="0.692708" stop-color="#FBFBFB" stop-opacity="0.19"/>
<stop offset="1" stop-color="#FBFBFB"/>
</linearGradient>
<linearGradient id="paint77_linear_617_10756" x1="-62.8372" y1="112.614" x2="277.909" y2="256.981" gradientUnits="userSpaceOnUse">
<stop stop-color="#FBFBFB" stop-opacity="0.74"/>
<stop offset="0.239583" stop-color="#FBFBFB" stop-opacity="0"/>
<stop offset="0.473958" stop-color="#FBFBFB" stop-opacity="0.72"/>
<stop offset="0.692708" stop-color="#FBFBFB" stop-opacity="0.19"/>
<stop offset="1" stop-color="#FBFBFB"/>
</linearGradient>
<linearGradient id="paint78_linear_617_10756" x1="-62.8372" y1="112.614" x2="277.909" y2="256.981" gradientUnits="userSpaceOnUse">
<stop stop-color="#FBFBFB" stop-opacity="0.74"/>
<stop offset="0.239583" stop-color="#FBFBFB" stop-opacity="0"/>
<stop offset="0.473958" stop-color="#FBFBFB" stop-opacity="0.72"/>
<stop offset="0.692708" stop-color="#FBFBFB" stop-opacity="0.19"/>
<stop offset="1" stop-color="#FBFBFB"/>
</linearGradient>
<linearGradient id="paint79_linear_617_10756" x1="-62.8372" y1="112.614" x2="277.909" y2="256.981" gradientUnits="userSpaceOnUse">
<stop stop-color="#FBFBFB" stop-opacity="0.74"/>
<stop offset="0.239583" stop-color="#FBFBFB" stop-opacity="0"/>
<stop offset="0.473958" stop-color="#FBFBFB" stop-opacity="0.72"/>
<stop offset="0.692708" stop-color="#FBFBFB" stop-opacity="0.19"/>
<stop offset="1" stop-color="#FBFBFB"/>
</linearGradient>
<linearGradient id="paint80_linear_617_10756" x1="-62.8372" y1="112.614" x2="277.909" y2="256.981" gradientUnits="userSpaceOnUse">
<stop stop-color="#FBFBFB" stop-opacity="0.74"/>
<stop offset="0.239583" stop-color="#FBFBFB" stop-opacity="0"/>
<stop offset="0.473958" stop-color="#FBFBFB" stop-opacity="0.72"/>
<stop offset="0.692708" stop-color="#FBFBFB" stop-opacity="0.19"/>
<stop offset="1" stop-color="#FBFBFB"/>
</linearGradient>
<linearGradient id="paint81_linear_617_10756" x1="-62.8372" y1="112.614" x2="277.909" y2="256.981" gradientUnits="userSpaceOnUse">
<stop stop-color="#FBFBFB" stop-opacity="0.74"/>
<stop offset="0.239583" stop-color="#FBFBFB" stop-opacity="0"/>
<stop offset="0.473958" stop-color="#FBFBFB" stop-opacity="0.72"/>
<stop offset="0.692708" stop-color="#FBFBFB" stop-opacity="0.19"/>
<stop offset="1" stop-color="#FBFBFB"/>
</linearGradient>
<linearGradient id="paint82_linear_617_10756" x1="-62.8372" y1="112.614" x2="277.909" y2="256.981" gradientUnits="userSpaceOnUse">
<stop stop-color="#FBFBFB" stop-opacity="0.74"/>
<stop offset="0.239583" stop-color="#FBFBFB" stop-opacity="0"/>
<stop offset="0.473958" stop-color="#FBFBFB" stop-opacity="0.72"/>
<stop offset="0.692708" stop-color="#FBFBFB" stop-opacity="0.19"/>
<stop offset="1" stop-color="#FBFBFB"/>
</linearGradient>
</defs>
</svg>
